<?xml version="1.0" encoding="utf-8"?>
<!-- Generator: Adobe Illustrator 27.9.0, SVG Export Plug-In . SVG Version: 6.00 Build 0)  -->
<svg version="1.1" id="Layer_1" xmlns="http://www.w3.org/2000/svg" xmlns:xlink="http://www.w3.org/1999/xlink" x="0px" y="0px"
	 viewBox="0 0 250 120.57494" style="enable-background:new 0 0 250 120.57494;" xml:space="preserve">
<style type="text/css">
	.st0{display:none;}
	.st1{display:inline;}
	.st2{fill:none;stroke:#000000;stroke-miterlimit:10;}
	.st3{fill:#FFFFFF;stroke:#000000;stroke-miterlimit:10;}
	.st4{display:inline;fill:#FFFFFF;}
	.st5{fill:#C92443;}
	.st6{fill:#9E1C35;}
	.st7{fill:none;stroke:#211619;stroke-width:3;stroke-linecap:round;stroke-linejoin:round;stroke-miterlimit:10;}
	.st8{fill:#211619;}
	.st9{fill:#FFFFFF;}
	.st10{fill:#2B7363;}
	.st11{fill:none;stroke:#000000;stroke-width:4;stroke-linecap:round;stroke-linejoin:round;stroke-miterlimit:10;}
	.st12{fill:#FFFFFF;stroke:#000000;stroke-width:4;stroke-linecap:round;stroke-linejoin:round;stroke-miterlimit:10;}
	.st13{fill:#94602C;}
	.st14{fill:#BA8445;}
	.st15{fill:#CF934D;}
	.st16{fill:#E0BC94;}
	.st17{fill:#243B36;}
	.st18{fill:#BADBD4;}
	.st19{fill:#21CFA8;}
	.st20{fill:#01B88F;}
	.st21{fill:#9CB8B2;}
	.st22{fill:#3FF0C8;}
	.st23{fill:#CEF2EB;}
	.st24{fill:#969696;}
	.st25{fill:#454545;}
	.st26{fill:#D4D4D4;}
	.st27{fill:#B3B3B3;}
	.st28{fill:#615356;}
	.st29{fill:#A11C31;}
	.st30{fill:#1F0509;}
	.st31{fill:#6B474D;}
	.st32{fill:#FF2B4E;}
</style>
<path id="path-01_00000120519504472418318400000016124849645891725460_" d="M74.4023,90.792l33.77481-15.00282
	c-1.92014-0.94005-3.87193-1.88506-5.76817-2.81641c-3.07998-1.51158-6.16679-3.00951-9.25142-4.5124
	c-12.67568,5.81412-21.52289,9.63793-21.52289,9.63793l20.27177-10.24796c-1.38895-0.67554-2.77263-1.36163-4.16438-2.03159
	c-4.7412-2.28305-9.51654-4.53723-14.31673-6.76006c-4.26682,1.72797-8.54732,3.42334-12.84084,5.08642
	c-5.38445-3.52361-14.16833-9.63048-14.16833-9.63048c-2.5935-3.85765-15.07981,4.53692-12.48631,8.39457l9.80774,7.62435
	c-9.41937,3.48791-18.87475,6.88237-28.33635,10.25262c2.05332,1.5299,3.72075,3.19826,5.06282,4.94051l58.42984-21.24722
	L22.73562,89.27142c5.0237,9.56901,2.33427,19.75519,2.33427,19.75519C25.93822,94.63972,14.81758,80.99667,7.1715,83.71622
	c-17.28401,8.36353-0.05899,43.95914,17.22502,35.5956c31.70628-11.27058,63.461-22.5598,94.05028-36.58097
	c0.69976-0.32039,1.39144-0.65691,2.08995-0.9804c-3.07346-1.46471-6.11183-2.91389-9.15238-4.39567
	C91.17499,85.72639,74.4023,90.792,74.4023,90.792z M3.51533,94.9809c3.65617,16.20798,13.11683,21.0538,13.11683,21.0538
	C3.51533,112.69271,3.51533,94.9809,3.51533,94.9809z M144.87201,41.07433c-5.2137-2.45069-10.38734-4.93212-15.52686-7.44615
	c4.67136-2.29361,9.34424-4.58504,14.03267-6.84232c19.24046-9.26383,38.7597-17.94837,58.52296-26.03746
	c3.26097-1.57833,6.78178-0.54174,10.026,1.9993c-9.38554,4.39411-33.74284,15.66656-33.74284,15.66656l37.13141-12.36089
	c2.72606,3.19609,5.05103,7.31514,6.57161,11.51243c-7.83267,3.63258-14.68057,6.80165-14.68057,6.80165l15.25739-5.07897
	c0.7072,2.30044,1.15239,4.58287,1.27254,6.7169c-10.89494,5.06469-25.0878,11.63319-25.0878,11.63319l24.97665-8.3151
	c-0.42097,3.16411-1.80962,5.71849-4.49936,7.02052c-14.34776,5.87247-28.56204,12.06844-42.6394,18.56244
	c-8.7966-3.5826-17.52895-7.30148-26.11911-11.23892c-1.17784-0.53956-2.35414-1.11762-3.53293-1.66712
	c8.30858-4.51332,15.95343-8.97201,22.01993-13.05009L144.87201,41.07433z M242.82869,83.71622
	c-7.64639-2.71954-18.76672,10.9235-17.8987,25.31039c0,0-2.68912-10.18618,2.33397-19.75519l-56.15797-24.79194l58.42984,21.24722
	c1.34239-1.74225,3.00951-3.41061,5.06282-4.94051c-28.9619-10.31626-57.87785-20.84301-85.82024-33.65063
	c-14.18509-6.50176-28.09698-13.58064-42.15635-20.3497C87.3816,17.52202,67.86235,8.83748,48.0994,0.74839
	c-3.26097-1.57833-6.78209-0.54174-10.0263,1.9993c9.38553,4.39411,33.74283,15.66656,33.74283,15.66656L34.68484,6.05337
	c-2.72637,3.1964-5.05102,7.31514-6.57192,11.51243c7.83297,3.63258,14.68088,6.80165,14.68088,6.80165l-15.25739-5.07897
	c-0.70752,2.30044-1.1527,4.58287-1.27285,6.7169c10.89494,5.06469,25.0881,11.63319,25.0881,11.63319l-24.97696-8.3151
	c0.42097,3.16411,1.80993,5.71849,4.49967,7.02052c19.76295,8.08909,39.28188,16.77362,58.52235,26.03715
	c14.05967,6.76937,27.97157,13.84826,42.15635,20.3497c3.84988,1.7646,7.71872,3.48542,11.60307,5.169
	c0.55199,1.20516,1.31755,3.01292,2.15669,5.05103c2.42741,5.8942,5.43257,13.61014,5.43257,13.61014
	c0,4.64868,15.04597,4.64868,15.04597,0l-1.97478-5.99666l-1.55971-4.73747c20.89734,8.37191,42.12872,15.94286,63.34676,23.48494
	C242.88736,127.67535,260.1124,92.07975,242.82869,83.71622z M94.70605,54.85987L175.59758,90.792
	C175.59758,90.792,126.12548,75.86369,94.70605,54.85987z M81.14558,28.95031l97.21936,49.148
	C178.36494,78.09831,110.90472,48.95573,81.14558,28.95031z M233.36803,116.03471c0,0,9.46066-4.84582,13.11653-21.0538
	C246.48456,94.9809,246.48456,112.69271,233.36803,116.03471z"/>
</svg>
